<?xml version="1.0" encoding="UTF-8" standalone="no"?>
<!-- Created with Inkscape (http://www.inkscape.org/) -->

<svg
   xmlns:dc="http://purl.org/dc/elements/1.1/"
   xmlns:cc="http://creativecommons.org/ns#"
   xmlns:rdf="http://www.w3.org/1999/02/22-rdf-syntax-ns#"
   xmlns:svg="http://www.w3.org/2000/svg"
   xmlns="http://www.w3.org/2000/svg"
   xmlns:sodipodi="http://sodipodi.sourceforge.net/DTD/sodipodi-0.dtd"
   xmlns:inkscape="http://www.inkscape.org/namespaces/inkscape"
   id="svg2"
   version="1.1"
   inkscape:version="0.48.4 r9939"
   width="450"
   height="315"
   xml:space="preserve"
   sodipodi:docname="data_w2_0009999.eps"><metadata
     id="metadata8"><rdf:RDF><cc:Work
         rdf:about=""><dc:format>image/svg+xml</dc:format><dc:type
           rdf:resource="http://purl.org/dc/dcmitype/StillImage" /><dc:title></dc:title></cc:Work></rdf:RDF></metadata><defs
     id="defs6" /><sodipodi:namedview
     pagecolor="#ffffff"
     bordercolor="#666666"
     borderopacity="1"
     objecttolerance="10"
     gridtolerance="10"
     guidetolerance="10"
     inkscape:pageopacity="0"
     inkscape:pageshadow="2"
     inkscape:window-width="1364"
     inkscape:window-height="874"
     id="namedview4"
     showgrid="false"
     inkscape:zoom="1.0595378"
     inkscape:cx="189.26706"
     inkscape:cy="6.212742"
     inkscape:window-x="65"
     inkscape:window-y="24"
     inkscape:window-maximized="0"
     inkscape:current-layer="g10" /><g
     id="g10"
     inkscape:groupmode="layer"
     inkscape:label="ink_ext_XXXXXX"
     transform="matrix(1.25,0,0,-1.25,0,315)"><g
       id="g12"
       transform="scale(0.1,0.1)"><path
         d="m 647.5,560 31.5,0 m 2605.5,0 -31.5,0"
         style="fill:none;stroke:#000000;stroke-opacity:1;stroke-width:5;stroke-linecap:butt;stroke-linejoin:miter;stroke-miterlimit:3.8;stroke-dasharray:none"
         id="path14" /><g
         id="g16"
         transform="scale(10,10)"><text
           transform="matrix(1,0,0,-1,38.6902,50.1648)"
           id="text18"
           style="font-style:normal;font-variant:normal;font-weight:normal;font-stretch:normal;font-family:Arial;-inkscape-font-specification:Arial"><tspan
             style="font-size:17.5px;font-style:normal;font-variant:normal;font-weight:normal;font-stretch:normal;writing-mode:lr-tb;fill:#000000;fill-opacity:1;fill-rule:nonzero;stroke:none;font-family:Arial;-inkscape-font-specification:Arial"
             sodipodi:role="line"
             id="tspan20"
             x="0"
             y="0">-6</tspan></text>
</g><path
         d="m 647.5,690.5 31.5,0 m 2605.5,0 -31.5,0"
         style="fill:none;stroke:#000000;stroke-opacity:1;stroke-width:5;stroke-linecap:butt;stroke-linejoin:miter;stroke-miterlimit:3.8;stroke-dasharray:none"
         id="path22" /><g
         id="g24"
         transform="scale(10,10)" /><path
         d="m 647.5,821 31.5,0 m 2605.5,0 -31.5,0"
         style="fill:none;stroke:#000000;stroke-opacity:1;stroke-width:5;stroke-linecap:butt;stroke-linejoin:miter;stroke-miterlimit:3.8;stroke-dasharray:none"
         id="path30" /><g
         id="g32"
         transform="scale(10,10)"><text
           transform="matrix(1,0,0,-1,38.6902,76.2648)"
           id="text34"
           style="font-style:normal;font-variant:normal;font-weight:normal;font-stretch:normal;font-family:Arial;-inkscape-font-specification:Arial"><tspan
             style="font-size:17.5px;font-style:normal;font-variant:normal;font-weight:normal;font-stretch:normal;writing-mode:lr-tb;fill:#000000;fill-opacity:1;fill-rule:nonzero;stroke:none;font-family:Arial;-inkscape-font-specification:Arial"
             sodipodi:role="line"
             id="tspan36"
             x="0"
             y="0">-4</tspan></text>
</g><path
         d="m 647.5,951 31.5,0 m 2605.5,0 -31.5,0"
         style="fill:none;stroke:#000000;stroke-opacity:1;stroke-width:5;stroke-linecap:butt;stroke-linejoin:miter;stroke-miterlimit:3.8;stroke-dasharray:none"
         id="path38" /><g
         id="g40"
         transform="scale(10,10)" /><path
         d="m 647.5,1081.5 31.5,0 m 2605.5,0 -31.5,0"
         style="fill:none;stroke:#000000;stroke-opacity:1;stroke-width:5;stroke-linecap:butt;stroke-linejoin:miter;stroke-miterlimit:3.8;stroke-dasharray:none"
         id="path46" /><g
         id="g48"
         transform="scale(10,10)"><text
           transform="matrix(1,0,0,-1,38.6902,102.315)"
           id="text50"
           style="font-style:normal;font-variant:normal;font-weight:normal;font-stretch:normal;font-family:Arial;-inkscape-font-specification:Arial"><tspan
             style="font-size:17.5px;font-style:normal;font-variant:normal;font-weight:normal;font-stretch:normal;writing-mode:lr-tb;fill:#000000;fill-opacity:1;fill-rule:nonzero;stroke:none;font-family:Arial;-inkscape-font-specification:Arial"
             sodipodi:role="line"
             id="tspan52"
             x="0"
             y="0">-2</tspan></text>
</g><path
         d="m 647.5,1212 31.5,0 m 2605.5,0 -31.5,0"
         style="fill:none;stroke:#000000;stroke-opacity:1;stroke-width:5;stroke-linecap:butt;stroke-linejoin:miter;stroke-miterlimit:3.8;stroke-dasharray:none"
         id="path54" /><g
         id="g56"
         transform="scale(10,10)" /><path
         d="m 647.5,1342.5 31.5,0 m 2605.5,0 -31.5,0"
         style="fill:none;stroke:#000000;stroke-opacity:1;stroke-width:5;stroke-linecap:butt;stroke-linejoin:miter;stroke-miterlimit:3.8;stroke-dasharray:none"
         id="path62" /><g
         id="g64"
         transform="scale(10,10)"><text
           transform="matrix(1,0,0,-1,44.5209,128.415)"
           id="text66"
           style="font-style:normal;font-variant:normal;font-weight:normal;font-stretch:normal;font-family:Arial;-inkscape-font-specification:Arial"><tspan
             style="font-size:17.5px;font-style:normal;font-variant:normal;font-weight:normal;font-stretch:normal;writing-mode:lr-tb;fill:#000000;fill-opacity:1;fill-rule:nonzero;stroke:none;font-family:Arial;-inkscape-font-specification:Arial"
             x="0"
             y="0"
             id="tspan68">0</tspan></text>
</g><path
         d="m 647.5,1473 31.5,0 m 2605.5,0 -31.5,0"
         style="fill:none;stroke:#000000;stroke-opacity:1;stroke-width:5;stroke-linecap:butt;stroke-linejoin:miter;stroke-miterlimit:3.8;stroke-dasharray:none"
         id="path70" /><g
         id="g72"
         transform="scale(10,10)" /><path
         d="m 647.5,1603.5 31.5,0 m 2605.5,0 -31.5,0"
         style="fill:none;stroke:#000000;stroke-opacity:1;stroke-width:5;stroke-linecap:butt;stroke-linejoin:miter;stroke-miterlimit:3.8;stroke-dasharray:none"
         id="path78" /><g
         id="g80"
         transform="scale(10,10)"><text
           transform="matrix(1,0,0,-1,44.5209,154.515)"
           id="text82"
           style="font-style:normal;font-variant:normal;font-weight:normal;font-stretch:normal;font-family:Arial;-inkscape-font-specification:Arial"><tspan
             style="font-size:17.5px;font-style:normal;font-variant:normal;font-weight:normal;font-stretch:normal;writing-mode:lr-tb;fill:#000000;fill-opacity:1;fill-rule:nonzero;stroke:none;font-family:Arial;-inkscape-font-specification:Arial"
             x="0"
             y="0"
             id="tspan84">2</tspan></text>
</g><path
         d="m 647.5,1733.5 31.5,0 m 2605.5,0 -31.5,0"
         style="fill:none;stroke:#000000;stroke-opacity:1;stroke-width:5;stroke-linecap:butt;stroke-linejoin:miter;stroke-miterlimit:3.8;stroke-dasharray:none"
         id="path86" /><g
         id="g88"
         transform="scale(10,10)" /><path
         d="m 647.5,1864 31.5,0 m 2605.5,0 -31.5,0"
         style="fill:none;stroke:#000000;stroke-opacity:1;stroke-width:5;stroke-linecap:butt;stroke-linejoin:miter;stroke-miterlimit:3.8;stroke-dasharray:none"
         id="path94" /><g
         id="g96"
         transform="scale(10,10)"><text
           transform="matrix(1,0,0,-1,44.5209,180.565)"
           id="text98"
           style="font-style:normal;font-variant:normal;font-weight:normal;font-stretch:normal;font-family:Arial;-inkscape-font-specification:Arial"><tspan
             style="font-size:17.5px;font-style:normal;font-variant:normal;font-weight:normal;font-stretch:normal;writing-mode:lr-tb;fill:#000000;fill-opacity:1;fill-rule:nonzero;stroke:none;font-family:Arial;-inkscape-font-specification:Arial"
             x="0"
             y="0"
             id="tspan100">4</tspan></text>
</g><path
         d="m 647.5,1994.5 31.5,0 m 2605.5,0 -31.5,0"
         style="fill:none;stroke:#000000;stroke-opacity:1;stroke-width:5;stroke-linecap:butt;stroke-linejoin:miter;stroke-miterlimit:3.8;stroke-dasharray:none"
         id="path102" /><g
         id="g104"
         transform="scale(10,10)" /><path
         d="m 647.5,560 0,31.5 m 0,1403 0,-31.5"
         style="fill:none;stroke:#000000;stroke-opacity:1;stroke-width:5;stroke-linecap:butt;stroke-linejoin:miter;stroke-miterlimit:3.8;stroke-dasharray:none"
         id="path110" /><g
         id="g112"
         transform="scale(10,10)"><text
           transform="matrix(1,0,0,-1,62.3181,32.6648)"
           id="text114"
           style="font-style:normal;font-variant:normal;font-weight:normal;font-stretch:normal;font-family:Arial;-inkscape-font-specification:Arial"><tspan
             style="font-size:17.5px;font-style:normal;font-variant:normal;font-weight:normal;font-stretch:normal;writing-mode:lr-tb;fill:#000000;fill-opacity:1;fill-rule:nonzero;stroke:none;font-family:Arial;-inkscape-font-specification:Arial"
             x="0"
             y="0"
             id="tspan116">0</tspan></text>
</g><path
         d="m 977,560 0,31.5 m 0,1403 0,-31.5"
         style="fill:none;stroke:#000000;stroke-opacity:1;stroke-width:5;stroke-linecap:butt;stroke-linejoin:miter;stroke-miterlimit:3.8;stroke-dasharray:none"
         id="path118" /><g
         id="g120"
         transform="scale(10,10)"><text
           transform="matrix(1,0,0,-1,95.2681,32.6648)"
           id="text122"
           style="font-style:normal;font-variant:normal;font-weight:normal;font-stretch:normal;font-family:Arial;-inkscape-font-specification:Arial"><tspan
             style="font-size:17.5px;font-style:normal;font-variant:normal;font-weight:normal;font-stretch:normal;writing-mode:lr-tb;fill:#000000;fill-opacity:1;fill-rule:nonzero;stroke:none;font-family:Arial;-inkscape-font-specification:Arial"
             x="0"
             y="0"
             id="tspan124">5</tspan></text>
</g><path
         d="m 1307,560 0,31.5 m 0,1403 0,-31.5"
         style="fill:none;stroke:#000000;stroke-opacity:1;stroke-width:5;stroke-linecap:butt;stroke-linejoin:miter;stroke-miterlimit:3.8;stroke-dasharray:none"
         id="path126" /><g
         id="g128"
         transform="scale(10,10)"><text
           transform="matrix(1,0,0,-1,123.402,32.6648)"
           id="text130"
           style="font-style:normal;font-variant:normal;font-weight:normal;font-stretch:normal;font-family:Arial;-inkscape-font-specification:Arial"><tspan
             style="font-size:17.5px;font-style:normal;font-variant:normal;font-weight:normal;font-stretch:normal;writing-mode:lr-tb;fill:#000000;fill-opacity:1;fill-rule:nonzero;stroke:none;font-family:Arial;-inkscape-font-specification:Arial"
             sodipodi:role="line"
             id="tspan132"
             x="0"
             y="0">10</tspan></text>
</g><path
         d="m 1636.5,560 0,31.5 m 0,1403 0,-31.5"
         style="fill:none;stroke:#000000;stroke-opacity:1;stroke-width:5;stroke-linecap:butt;stroke-linejoin:miter;stroke-miterlimit:3.8;stroke-dasharray:none"
         id="path134" /><g
         id="g136"
         transform="scale(10,10)"><text
           transform="matrix(1,0,0,-1,156.352,32.6648)"
           id="text138"
           style="font-style:normal;font-variant:normal;font-weight:normal;font-stretch:normal;font-family:Arial;-inkscape-font-specification:Arial"><tspan
             style="font-size:17.5px;font-style:normal;font-variant:normal;font-weight:normal;font-stretch:normal;writing-mode:lr-tb;fill:#000000;fill-opacity:1;fill-rule:nonzero;stroke:none;font-family:Arial;-inkscape-font-specification:Arial"
             sodipodi:role="line"
             id="tspan140"
             x="0"
             y="0">15</tspan></text>
</g><path
         d="m 1966,560 0,31.5 m 0,1403 0,-31.5"
         style="fill:none;stroke:#000000;stroke-opacity:1;stroke-width:5;stroke-linecap:butt;stroke-linejoin:miter;stroke-miterlimit:3.8;stroke-dasharray:none"
         id="path142" /><g
         id="g144"
         transform="scale(10,10)"><text
           transform="matrix(1,0,0,-1,189.302,32.6648)"
           id="text146"
           style="font-style:normal;font-variant:normal;font-weight:normal;font-stretch:normal;font-family:Arial;-inkscape-font-specification:Arial"><tspan
             style="font-size:17.5px;font-style:normal;font-variant:normal;font-weight:normal;font-stretch:normal;writing-mode:lr-tb;fill:#000000;fill-opacity:1;fill-rule:nonzero;stroke:none;font-family:Arial;-inkscape-font-specification:Arial"
             sodipodi:role="line"
             id="tspan148"
             x="0"
             y="0">20</tspan></text>
</g><path
         d="m 2295.5,560 0,31.5 m 0,1403 0,-31.5"
         style="fill:none;stroke:#000000;stroke-opacity:1;stroke-width:5;stroke-linecap:butt;stroke-linejoin:miter;stroke-miterlimit:3.8;stroke-dasharray:none"
         id="path150" /><g
         id="g152"
         transform="scale(10,10)"><text
           transform="matrix(1,0,0,-1,222.252,32.6648)"
           id="text154"
           style="font-style:normal;font-variant:normal;font-weight:normal;font-stretch:normal;font-family:Arial;-inkscape-font-specification:Arial"><tspan
             style="font-size:17.5px;font-style:normal;font-variant:normal;font-weight:normal;font-stretch:normal;writing-mode:lr-tb;fill:#000000;fill-opacity:1;fill-rule:nonzero;stroke:none;font-family:Arial;-inkscape-font-specification:Arial"
             sodipodi:role="line"
             id="tspan156"
             x="0"
             y="0">25</tspan></text>
</g><path
         d="m 2625.5,560 0,31.5 m 0,1403 0,-31.5"
         style="fill:none;stroke:#000000;stroke-opacity:1;stroke-width:5;stroke-linecap:butt;stroke-linejoin:miter;stroke-miterlimit:3.8;stroke-dasharray:none"
         id="path158" /><g
         id="g160"
         transform="scale(10,10)"><text
           transform="matrix(1,0,0,-1,255.252,32.6648)"
           id="text162"
           style="font-style:normal;font-variant:normal;font-weight:normal;font-stretch:normal;font-family:Arial;-inkscape-font-specification:Arial"><tspan
             style="font-size:17.5px;font-style:normal;font-variant:normal;font-weight:normal;font-stretch:normal;writing-mode:lr-tb;fill:#000000;fill-opacity:1;fill-rule:nonzero;stroke:none;font-family:Arial;-inkscape-font-specification:Arial"
             sodipodi:role="line"
             id="tspan164"
             x="0"
             y="0">30</tspan></text>
</g><path
         d="m 2955,560 0,31.5 m 0,1403 0,-31.5"
         style="fill:none;stroke:#000000;stroke-opacity:1;stroke-width:5;stroke-linecap:butt;stroke-linejoin:miter;stroke-miterlimit:3.8;stroke-dasharray:none"
         id="path166" /><g
         id="g168"
         transform="scale(10,10)"><text
           transform="matrix(1,0,0,-1,288.202,32.6648)"
           id="text170"
           style="font-style:normal;font-variant:normal;font-weight:normal;font-stretch:normal;font-family:Arial;-inkscape-font-specification:Arial"><tspan
             style="font-size:17.5px;font-style:normal;font-variant:normal;font-weight:normal;font-stretch:normal;writing-mode:lr-tb;fill:#000000;fill-opacity:1;fill-rule:nonzero;stroke:none;font-family:Arial;-inkscape-font-specification:Arial"
             sodipodi:role="line"
             id="tspan172"
             x="0"
             y="0">35</tspan></text>
</g><path
         d="m 3284.5,560 0,31.5 m 0,1403 0,-31.5"
         style="fill:none;stroke:#000000;stroke-opacity:1;stroke-width:5;stroke-linecap:butt;stroke-linejoin:miter;stroke-miterlimit:3.8;stroke-dasharray:none"
         id="path174" /><g
         id="g176"
         transform="scale(10,10)"><text
           transform="matrix(1,0,0,-1,321.152,32.6648)"
           id="text178"
           style="font-style:normal;font-variant:normal;font-weight:normal;font-stretch:normal;font-family:Arial;-inkscape-font-specification:Arial"><tspan
             style="font-size:17.5px;font-style:normal;font-variant:normal;font-weight:normal;font-stretch:normal;writing-mode:lr-tb;fill:#000000;fill-opacity:1;fill-rule:nonzero;stroke:none;font-family:Arial;-inkscape-font-specification:Arial"
             sodipodi:role="line"
             id="tspan180"
             x="0"
             y="0">40</tspan></text>
</g><path
         d="m 647.5,560 2637,0 0,1434.5 -2637,0 0,-1434.5 z"
         style="fill:none;stroke:#000000;stroke-opacity:1;stroke-width:5;stroke-linecap:butt;stroke-linejoin:miter;stroke-miterlimit:3.8;stroke-dasharray:none"
         id="path182" /><g
         id="g184"
         transform="scale(10,10)"><text
           transform="matrix(0,1,1,0,19.8352,100.468)"
           id="text186"
           style="font-style:normal;font-variant:normal;font-weight:normal;font-stretch:normal;font-family:Arial;-inkscape-font-specification:Arial"><tspan
             style="font-size:17.5px;font-style:normal;font-variant:normal;font-weight:normal;font-stretch:normal;writing-mode:lr-tb;fill:#000000;fill-opacity:1;fill-rule:nonzero;stroke:none;font-family:Arial;-inkscape-font-specification:Arial"
             sodipodi:role="line"
             id="tspan188"
             x="0"
             y="0">Weight</tspan></text>
<text
           transform="matrix(1,0,0,-1,149.421,6.41484)"
           id="text190"
           style="font-style:normal;font-variant:normal;font-weight:normal;font-stretch:normal;font-family:Arial;-inkscape-font-specification:Arial"><tspan
             style="font-size:17.5px;font-style:normal;font-variant:normal;font-weight:normal;font-stretch:normal;writing-mode:lr-tb;fill:#000000;fill-opacity:1;fill-rule:nonzero;stroke:none;font-family:Arial;-inkscape-font-specification:Arial"
             sodipodi:role="line"
             id="tspan194"
             x="0"
             y="0">Output units</tspan></text>
</g><path
         d="m 647.5,1069 66,210.5 66,229 66,152 65.5,11 66,-141.5 66,-242.5 66,-250.5 66,-162.5 66,-9 66,152.5 65.5,260.5 66,276.5 66,194 66,47 66,-109 66,-220.5 65.5,-242.5 66,-169 66,-28.5 66,122.5 66,223 66,234 66,147.5 65.5,-2 66,-155.5 66,-259.5 66,-272 66,-186.5 66,-35.5 66,126 65.5,238.5 66,262.5 66,187 66,42.5 66,-109 66,-211 65.5,-226.5 66,-148 66,-6"
         style="fill:none;stroke:#ff0000;stroke-opacity:1;stroke-width:12.47999952;stroke-linecap:butt;stroke-linejoin:miter;stroke-miterlimit:3.79999995;stroke-dasharray:99.83999632,49.91999816;stroke-dashoffset:0"
         id="path196" /><path
         d="m 647.5,1081.5 66,-134 66,33.5 66,180 65.5,249.5 66,216.5 66,94.5 66,-69.5 66,-213.5 66,-278.5 66,-237 65.5,-105.5 66,71 66,222 66,295 66,263 66,138 65.5,-31.5 66,-182 66,-257 66,-230.5 66,-112 66,52.5 66,194.5 65.5,259.5 66,219.5 66,90 66,-79 66,-224.5 66,-295 66,-259 65.5,-131.5 66,43.5 66,198.5 66,278 66,248.5 66,128.5 65.5,-37 66,-181.5 66,-249.5"
         style="fill:none;stroke:#00a9ff;stroke-opacity:1;stroke-width:12.47999951999999979;stroke-linecap:butt;stroke-linejoin:miter;stroke-miterlimit:3.79999995000000013;stroke-dasharray:99.83999631999999735, 49.91999815999999868;stroke-dashoffset:0"
         id="path198" /><path
         d="m 647.5,1600.5 66,137.5 66,106.5 66,71.5 65.5,31 66,-14 66,-57 66,-94 66,-122.5 66,-139.5 66,-147 65.5,-146.5 66,-138 66,-123.5 66,-102.5 66,-73 66,-36.5 65.5,4 66,44 66,83 66,119.5 66,145.5 66,160 66,159 65.5,147.5 66,124.5 66,92.5 66,57.5 66,25 66,-9 66,-43 65.5,-74.5 66,-108 66,-133.5 66,-153.5 66,-161 66,-156 65.5,-134.5 66,-105 66,-69"
         style="fill:none;stroke:#0000ff;stroke-opacity:1;stroke-width:12.47999952;stroke-linecap:butt;stroke-linejoin:miter;stroke-miterlimit:3.79999995;stroke-dasharray:none;stroke-dashoffset:0"
         id="path200" /><path
         d="m 647.5,1926 66,-98.5 66,-158.5 66,-193.5 65.5,-196 66,-170 66,-127 66,-77.5 66,-35 66,-9.5 66,2 65.5,4 66,13.5 66,35 66,71 66,115.5 66,162 65.5,192 66,194 66,163.5 66,108.5 66,44 66,-21 66,-72.5 65.5,-103 66,-108.5 66,-102.5 66,-95.5 66,-93 66,-101.5 66,-119 65.5,-134.5 66,-135 66,-111 66,-63 66,-1.5 66,66 65.5,129 66,172.5 66,184.5"
         style="fill:none;stroke:#ff00ff;stroke-opacity:1;stroke-width:12.48;stroke-linecap:butt;stroke-linejoin:miter;stroke-miterlimit:3.79999995;stroke-dasharray:none;stroke-dashoffset:0"
         id="path202" /><path
         d="m 647.5,1187.5 66,-57 66,-104.5 66,-105 65.5,-48 66,54 66,165 66,245 66,266.5 66,218 66,115.5 65.5,-5.5 66,-111 66,-164 66,-156 66,-98.5 66,-22.5 65.5,38.5 66,56.5 66,20 66,-59.5 66,-149.5 66,-211.5 66,-214 65.5,-151 66,-41 66,89.5 66,193.5 66,240 66,220.5 66,148 65.5,51.5 66,-31 66,-70.5 66,-53 66,10.5 66,85.5 65.5,133.5 66,131 66,70.5"
         style="fill:none;stroke:#000000;stroke-opacity:1;stroke-width:12.47999951999999979;stroke-linecap:butt;stroke-linejoin:miter;stroke-miterlimit:3.79999995000000013;stroke-dasharray:24.95999911999999910, 24.95999911999999910;stroke-dashoffset:0"
         id="path204" /><path
         d="m 647.5,560 2637,0 0,1434.5 -2637,0 0,-1434.5 z"
         style="fill:none;stroke:#000000;stroke-opacity:1;stroke-width:5;stroke-linecap:butt;stroke-linejoin:miter;stroke-miterlimit:3.8;stroke-dasharray:none"
         id="path206" /></g></g></svg>