<?xml version="1.0" encoding="UTF-8" standalone="no"?>
<!-- Created with Inkscape (http://www.inkscape.org/) -->

<svg
   xmlns:dc="http://purl.org/dc/elements/1.1/"
   xmlns:cc="http://creativecommons.org/ns#"
   xmlns:rdf="http://www.w3.org/1999/02/22-rdf-syntax-ns#"
   xmlns:svg="http://www.w3.org/2000/svg"
   xmlns="http://www.w3.org/2000/svg"
   xmlns:sodipodi="http://sodipodi.sourceforge.net/DTD/sodipodi-0.dtd"
   xmlns:inkscape="http://www.inkscape.org/namespaces/inkscape"
   id="svg2"
   version="1.1"
   inkscape:version="0.48.4 r9939"
   width="427.5"
   height="291.25"
   xml:space="preserve"
   sodipodi:docname="data_t_predict.eps"><metadata
     id="metadata8"><rdf:RDF><cc:Work
         rdf:about=""><dc:format>image/svg+xml</dc:format><dc:type
           rdf:resource="http://purl.org/dc/dcmitype/StillImage" /><dc:title></dc:title></cc:Work></rdf:RDF></metadata><defs
     id="defs6" /><sodipodi:namedview
     pagecolor="#ffffff"
     bordercolor="#666666"
     borderopacity="1"
     objecttolerance="10"
     gridtolerance="10"
     guidetolerance="10"
     inkscape:pageopacity="0"
     inkscape:pageshadow="2"
     inkscape:window-width="800"
     inkscape:window-height="480"
     id="namedview4"
     showgrid="false"
     inkscape:zoom="0.57296893"
     inkscape:cx="232.04338"
     inkscape:cy="62.214385"
     inkscape:window-x="75"
     inkscape:window-y="34"
     inkscape:window-maximized="0"
     inkscape:current-layer="g10" /><g
     id="g10"
     inkscape:groupmode="layer"
     inkscape:label="ink_ext_XXXXXX"
     transform="matrix(1.25,0,0,-1.25,0,291.25)"><g
       id="g12"
       transform="scale(0.1,0.1)"><path
         d="m 765.512,458.703 31.519,0 m 2395.509,0 -31.52,0"
         style="fill:none;stroke:#000000;stroke-width:5;stroke-linecap:butt;stroke-linejoin:miter;stroke-miterlimit:3.79999995;stroke-opacity:1;stroke-dasharray:none"
         id="path14"
         inkscape:connector-curvature="0" /><g
         id="g16"
         transform="matrix(10,0,0,10,0,-48)" /><path
         d="m 765.512,617.684 31.519,0 m 2395.509,0 -31.52,0"
         style="fill:none;stroke:#000000;stroke-width:5;stroke-linecap:butt;stroke-linejoin:miter;stroke-miterlimit:3.79999995;stroke-opacity:1;stroke-dasharray:none"
         id="path22"
         inkscape:connector-curvature="0" /><g
         id="g24"
         transform="matrix(10,0,0,10,0,-48)"><text
           transform="matrix(1,0,0,-1,50.4918,60.7355)"
           id="text26"
           style="font-style:normal;font-variant:normal;font-weight:normal;font-stretch:normal;font-family:Arial;-inkscape-font-specification:Arial"><tspan
             style="font-size:17.5px;font-style:normal;font-variant:normal;font-weight:normal;font-stretch:normal;writing-mode:lr-tb;fill:#000000;fill-opacity:1;fill-rule:nonzero;stroke:none;font-family:Arial;-inkscape-font-specification:Arial"
             sodipodi:role="line"
             id="tspan28"
             x="0"
             y="0">-2</tspan></text>
</g><path
         d="m 765.512,776.715 31.519,0 m 2395.509,0 -31.52,0"
         style="fill:none;stroke:#000000;stroke-width:5;stroke-linecap:butt;stroke-linejoin:miter;stroke-miterlimit:3.79999995;stroke-opacity:1;stroke-dasharray:none"
         id="path30"
         inkscape:connector-curvature="0" /><g
         id="g32"
         transform="matrix(10,0,0,10,0,-48)" /><path
         d="m 765.512,935.691 31.519,0 m 2395.509,0 -31.52,0"
         style="fill:none;stroke:#000000;stroke-width:5;stroke-linecap:butt;stroke-linejoin:miter;stroke-miterlimit:3.79999995;stroke-opacity:1;stroke-dasharray:none"
         id="path38"
         inkscape:connector-curvature="0" /><g
         id="g40"
         transform="matrix(10,0,0,10,0,-48)"><text
           transform="matrix(1,0,0,-1,50.4918,92.5355)"
           id="text42"
           style="font-style:normal;font-variant:normal;font-weight:normal;font-stretch:normal;font-family:Arial;-inkscape-font-specification:Arial"><tspan
             style="font-size:17.5px;font-style:normal;font-variant:normal;font-weight:normal;font-stretch:normal;writing-mode:lr-tb;fill:#000000;fill-opacity:1;fill-rule:nonzero;stroke:none;font-family:Arial;-inkscape-font-specification:Arial"
             sodipodi:role="line"
             id="tspan44"
             x="0"
             y="0">-1</tspan></text>
</g><path
         d="m 765.512,1094.71 31.519,0 m 2395.509,0 -31.52,0"
         style="fill:none;stroke:#000000;stroke-width:5;stroke-linecap:butt;stroke-linejoin:miter;stroke-miterlimit:3.79999995;stroke-opacity:1;stroke-dasharray:none"
         id="path46"
         inkscape:connector-curvature="0" /><g
         id="g48"
         transform="matrix(10,0,0,10,0,-48)" /><path
         d="m 765.512,1253.7 31.519,0 m 2395.509,0 -31.52,0"
         style="fill:none;stroke:#000000;stroke-width:5;stroke-linecap:butt;stroke-linejoin:miter;stroke-miterlimit:3.79999995;stroke-opacity:1;stroke-dasharray:none"
         id="path54"
         inkscape:connector-curvature="0" /><g
         id="g56"
         transform="matrix(10,0,0,10,0,-48)"><text
           transform="matrix(1,0,0,-1,56.3227,124.336)"
           id="text58"
           style="font-style:normal;font-variant:normal;font-weight:normal;font-stretch:normal;font-family:Arial;-inkscape-font-specification:Arial"><tspan
             style="font-size:17.5px;font-style:normal;font-variant:normal;font-weight:normal;font-stretch:normal;writing-mode:lr-tb;fill:#000000;fill-opacity:1;fill-rule:nonzero;stroke:none;font-family:Arial;-inkscape-font-specification:Arial"
             x="0"
             y="0"
             id="tspan60">0</tspan></text>
</g><path
         d="m 765.512,1413.19 31.519,0 m 2395.509,0 -31.52,0"
         style="fill:none;stroke:#000000;stroke-width:5;stroke-linecap:butt;stroke-linejoin:miter;stroke-miterlimit:3.79999995;stroke-opacity:1;stroke-dasharray:none"
         id="path62"
         inkscape:connector-curvature="0" /><g
         id="g64"
         transform="matrix(10,0,0,10,0,-48)" /><path
         d="m 765.512,1572.21 31.519,0 m 2395.509,0 -31.52,0"
         style="fill:none;stroke:#000000;stroke-width:5;stroke-linecap:butt;stroke-linejoin:miter;stroke-miterlimit:3.79999995;stroke-opacity:1;stroke-dasharray:none"
         id="path70"
         inkscape:connector-curvature="0" /><g
         id="g72"
         transform="matrix(10,0,0,10,0,-48)"><text
           transform="matrix(1,0,0,-1,56.3227,156.186)"
           id="text74"
           style="font-style:normal;font-variant:normal;font-weight:normal;font-stretch:normal;font-family:Arial;-inkscape-font-specification:Arial"><tspan
             style="font-size:17.5px;font-style:normal;font-variant:normal;font-weight:normal;font-stretch:normal;writing-mode:lr-tb;fill:#000000;fill-opacity:1;fill-rule:nonzero;stroke:none;font-family:Arial;-inkscape-font-specification:Arial"
             x="0"
             y="0"
             id="tspan76">1</tspan></text>
</g><path
         d="m 765.512,1731.2 31.519,0 m 2395.509,0 -31.52,0"
         style="fill:none;stroke:#000000;stroke-width:5;stroke-linecap:butt;stroke-linejoin:miter;stroke-miterlimit:3.79999995;stroke-opacity:1;stroke-dasharray:none"
         id="path78"
         inkscape:connector-curvature="0" /><g
         id="g80"
         transform="matrix(10,0,0,10,0,-48)" /><path
         d="m 765.512,1890.18 31.519,0 m 2395.509,0 -31.52,0"
         style="fill:none;stroke:#000000;stroke-width:5;stroke-linecap:butt;stroke-linejoin:miter;stroke-miterlimit:3.79999995;stroke-opacity:1;stroke-dasharray:none"
         id="path86"
         inkscape:connector-curvature="0" /><g
         id="g88"
         transform="matrix(10,0,0,10,0,-48)"><text
           transform="matrix(1,0,0,-1,56.3227,187.986)"
           id="text90"
           style="font-style:normal;font-variant:normal;font-weight:normal;font-stretch:normal;font-family:Arial;-inkscape-font-specification:Arial"><tspan
             style="font-size:17.5px;font-style:normal;font-variant:normal;font-weight:normal;font-stretch:normal;writing-mode:lr-tb;fill:#000000;fill-opacity:1;fill-rule:nonzero;stroke:none;font-family:Arial;-inkscape-font-specification:Arial"
             x="0"
             y="0"
             id="tspan92">2</tspan></text>
</g><path
         d="m 765.512,2049.21 31.519,0 m 2395.509,0 -31.52,0"
         style="fill:none;stroke:#000000;stroke-width:5;stroke-linecap:butt;stroke-linejoin:miter;stroke-miterlimit:3.79999995;stroke-opacity:1;stroke-dasharray:none"
         id="path94"
         inkscape:connector-curvature="0" /><g
         id="g96"
         transform="matrix(10,0,0,10,0,-48)" /><path
         d="m 765.512,2208.19 31.519,0 m 2395.509,0 -31.52,0"
         style="fill:none;stroke:#000000;stroke-width:5;stroke-linecap:butt;stroke-linejoin:miter;stroke-miterlimit:3.79999995;stroke-opacity:1;stroke-dasharray:none"
         id="path102"
         inkscape:connector-curvature="0" /><g
         id="g104"
         transform="matrix(10,0,0,10,0,-48)"><text
           transform="matrix(1,0,0,-1,56.3227,219.786)"
           id="text106"
           style="font-style:normal;font-variant:normal;font-weight:normal;font-stretch:normal;font-family:Arial;-inkscape-font-specification:Arial"><tspan
             style="font-size:17.5px;font-style:normal;font-variant:normal;font-weight:normal;font-stretch:normal;writing-mode:lr-tb;fill:#000000;fill-opacity:1;fill-rule:nonzero;stroke:none;font-family:Arial;-inkscape-font-specification:Arial"
             x="0"
             y="0"
             id="tspan108">3</tspan></text>
</g><path
         d="m 765.512,458.703 0,31.481 m 0,1718.006 0,-31.48"
         style="fill:none;stroke:#000000;stroke-width:5;stroke-linecap:butt;stroke-linejoin:miter;stroke-miterlimit:3.79999995;stroke-opacity:1;stroke-dasharray:none"
         id="path110"
         inkscape:connector-curvature="0" /><g
         id="g112"
         transform="matrix(10,0,0,10,0,-48)"><text
           transform="matrix(1,0,0,-1,59.5211,27.3355)"
           id="text114"
           style="font-style:normal;font-variant:normal;font-weight:normal;font-stretch:normal;font-family:Arial;-inkscape-font-specification:Arial"><tspan
             style="font-size:17.5px;font-style:normal;font-variant:normal;font-weight:normal;font-stretch:normal;writing-mode:lr-tb;fill:#000000;fill-opacity:1;fill-rule:nonzero;stroke:none;font-family:Arial;-inkscape-font-specification:Arial"
             sodipodi:role="line"
             id="tspan116"
             x="0"
             y="0">1099</tspan></text>
</g><path
         d="m 893.012,458.703 0,31.481 m 0,1718.006 0,-31.48"
         style="fill:none;stroke:#000000;stroke-width:5;stroke-linecap:butt;stroke-linejoin:miter;stroke-miterlimit:3.79999995;stroke-opacity:1;stroke-dasharray:none"
         id="path118"
         inkscape:connector-curvature="0" /><path
         d="m 1021.02,458.703 0,31.481 m 0,1718.006 0,-31.48"
         style="fill:none;stroke:#000000;stroke-width:5;stroke-linecap:butt;stroke-linejoin:miter;stroke-miterlimit:3.79999995;stroke-opacity:1;stroke-dasharray:none"
         id="path120"
         inkscape:connector-curvature="0" /><path
         d="m 1148.52,458.703 0,31.481 m 0,1718.006 0,-31.48"
         style="fill:none;stroke:#000000;stroke-width:5;stroke-linecap:butt;stroke-linejoin:miter;stroke-miterlimit:3.79999995;stroke-opacity:1;stroke-dasharray:none"
         id="path122"
         inkscape:connector-curvature="0" /><path
         d="m 1276.52,458.703 0,31.481 m 0,1718.006 0,-31.48"
         style="fill:none;stroke:#000000;stroke-width:5;stroke-linecap:butt;stroke-linejoin:miter;stroke-miterlimit:3.79999995;stroke-opacity:1;stroke-dasharray:none"
         id="path124"
         inkscape:connector-curvature="0" /><path
         d="m 1404.02,458.703 0,31.481 m 0,1718.006 0,-31.48"
         style="fill:none;stroke:#000000;stroke-width:5;stroke-linecap:butt;stroke-linejoin:miter;stroke-miterlimit:3.79999995;stroke-opacity:1;stroke-dasharray:none"
         id="path126"
         inkscape:connector-curvature="0" /><path
         d="m 1532.03,458.703 0,31.481 m 0,1718.006 0,-31.48"
         style="fill:none;stroke:#000000;stroke-width:5;stroke-linecap:butt;stroke-linejoin:miter;stroke-miterlimit:3.79999995;stroke-opacity:1;stroke-dasharray:none"
         id="path128"
         inkscape:connector-curvature="0" /><path
         d="m 1659.53,458.703 0,31.481 m 0,1718.006 0,-31.48"
         style="fill:none;stroke:#000000;stroke-width:5;stroke-linecap:butt;stroke-linejoin:miter;stroke-miterlimit:3.79999995;stroke-opacity:1;stroke-dasharray:none"
         id="path130"
         inkscape:connector-curvature="0" /><path
         d="m 1787.54,458.703 0,31.481 m 0,1718.006 0,-31.48"
         style="fill:none;stroke:#000000;stroke-width:5;stroke-linecap:butt;stroke-linejoin:miter;stroke-miterlimit:3.79999995;stroke-opacity:1;stroke-dasharray:none"
         id="path132"
         inkscape:connector-curvature="0" /><path
         d="m 1915.04,458.703 0,31.481 m 0,1718.006 0,-31.48"
         style="fill:none;stroke:#000000;stroke-width:5;stroke-linecap:butt;stroke-linejoin:miter;stroke-miterlimit:3.79999995;stroke-opacity:1;stroke-dasharray:none"
         id="path134"
         inkscape:connector-curvature="0" /><g
         id="g136"
         transform="matrix(10,0,0,10,0,-48)"><text
           transform="matrix(1,0,0,-1,171.801,27.3355)"
           id="text138"
           style="font-style:normal;font-variant:normal;font-weight:normal;font-stretch:normal;font-family:Arial;-inkscape-font-specification:Arial"><tspan
             style="font-size:17.5px;font-style:normal;font-variant:normal;font-weight:normal;font-stretch:normal;writing-mode:lr-tb;fill:#000000;fill-opacity:1;fill-rule:nonzero;stroke:none;font-family:Arial;-inkscape-font-specification:Arial"
             sodipodi:role="line"
             id="tspan140"
             x="0"
             y="0">1108</tspan></text>
</g><path
         d="m 2043.01,458.703 0,31.481 m 0,1718.006 0,-31.48"
         style="fill:none;stroke:#000000;stroke-width:5;stroke-linecap:butt;stroke-linejoin:miter;stroke-miterlimit:3.79999995;stroke-opacity:1;stroke-dasharray:none"
         id="path142"
         inkscape:connector-curvature="0" /><path
         d="m 2170.51,458.703 0,31.481 m 0,1718.006 0,-31.48"
         style="fill:none;stroke:#000000;stroke-width:5;stroke-linecap:butt;stroke-linejoin:miter;stroke-miterlimit:3.79999995;stroke-opacity:1;stroke-dasharray:none"
         id="path144"
         inkscape:connector-curvature="0" /><path
         d="m 2298.52,458.703 0,31.481 m 0,1718.006 0,-31.48"
         style="fill:none;stroke:#000000;stroke-width:5;stroke-linecap:butt;stroke-linejoin:miter;stroke-miterlimit:3.79999995;stroke-opacity:1;stroke-dasharray:none"
         id="path146"
         inkscape:connector-curvature="0" /><path
         d="m 2426.02,458.703 0,31.481 m 0,1718.006 0,-31.48"
         style="fill:none;stroke:#000000;stroke-width:5;stroke-linecap:butt;stroke-linejoin:miter;stroke-miterlimit:3.79999995;stroke-opacity:1;stroke-dasharray:none"
         id="path148"
         inkscape:connector-curvature="0" /><path
         d="m 2554.02,458.703 0,31.481 m 0,1718.006 0,-31.48"
         style="fill:none;stroke:#000000;stroke-width:5;stroke-linecap:butt;stroke-linejoin:miter;stroke-miterlimit:3.79999995;stroke-opacity:1;stroke-dasharray:none"
         id="path150"
         inkscape:connector-curvature="0" /><path
         d="m 2681.52,458.703 0,31.481 m 0,1718.006 0,-31.48"
         style="fill:none;stroke:#000000;stroke-width:5;stroke-linecap:butt;stroke-linejoin:miter;stroke-miterlimit:3.79999995;stroke-opacity:1;stroke-dasharray:none"
         id="path152"
         inkscape:connector-curvature="0" /><path
         d="m 2809.53,458.703 0,31.481 m 0,1718.006 0,-31.48"
         style="fill:none;stroke:#000000;stroke-width:5;stroke-linecap:butt;stroke-linejoin:miter;stroke-miterlimit:3.79999995;stroke-opacity:1;stroke-dasharray:none"
         id="path154"
         inkscape:connector-curvature="0" /><path
         d="m 2937.03,458.703 0,31.481 m 0,1718.006 0,-31.48"
         style="fill:none;stroke:#000000;stroke-width:5;stroke-linecap:butt;stroke-linejoin:miter;stroke-miterlimit:3.79999995;stroke-opacity:1;stroke-dasharray:none"
         id="path156"
         inkscape:connector-curvature="0" /><path
         d="m 3065.04,458.703 0,31.481 m 0,1718.006 0,-31.48"
         style="fill:none;stroke:#000000;stroke-width:5;stroke-linecap:butt;stroke-linejoin:miter;stroke-miterlimit:3.79999995;stroke-opacity:1;stroke-dasharray:none"
         id="path158"
         inkscape:connector-curvature="0" /><path
         d="m 3192.54,458.703 0,31.481 m 0,1718.006 0,-31.48"
         style="fill:none;stroke:#000000;stroke-width:5;stroke-linecap:butt;stroke-linejoin:miter;stroke-miterlimit:3.79999995;stroke-opacity:1;stroke-dasharray:none"
         id="path160"
         inkscape:connector-curvature="0" /><g
         id="g162"
         transform="matrix(10,0,0,10,0,-48)"><text
           transform="matrix(1,0,0,-1,302.221,27.3355)"
           id="text164"
           style="font-style:normal;font-variant:normal;font-weight:normal;font-stretch:normal;font-family:Arial;-inkscape-font-specification:Arial"><tspan
             style="font-size:17.5px;font-style:normal;font-variant:normal;font-weight:normal;font-stretch:normal;writing-mode:lr-tb;fill:#000000;fill-opacity:1;fill-rule:nonzero;stroke:none;font-family:Arial;-inkscape-font-specification:Arial"
             sodipodi:role="line"
             id="tspan166"
             x="0"
             y="0">1118</tspan></text>
</g><path
         d="m 765.512,458.703 2427.03,0 0,1749.49 -2427.03,0 0,-1749.49 z"
         style="fill:none;stroke:#000000;stroke-width:5;stroke-linecap:butt;stroke-linejoin:miter;stroke-miterlimit:3.79999995;stroke-opacity:1;stroke-dasharray:none"
         id="path168"
         inkscape:connector-curvature="0" /><g
         id="g170"
         transform="matrix(10,0,0,10,0,-48)"><text
           transform="matrix(0,1,1,0,0,0)"
           id="text172"
           style="font-style:normal;font-variant:normal;font-weight:normal;font-stretch:normal;font-family:Arial;-inkscape-font-specification:Arial"
           x="131.8"
           y="13.686721"><tspan
             style="font-size:17.5px;font-style:normal;font-variant:normal;font-weight:normal;font-stretch:normal;writing-mode:lr-tb;fill:#000000;fill-opacity:1;fill-rule:nonzero;stroke:none;font-family:Arial;-inkscape-font-specification:Arial"
             x="131.8"
             y="13.686721"
             id="tspan174">x</tspan></text>
<text
           transform="matrix(0,1,1,0,0,0)"
           id="text176"
           style="font-style:normal;font-variant:normal;font-weight:normal;font-stretch:normal;font-family:Arial;-inkscape-font-specification:Arial"
           x="140.55"
           y="18.93672"><tspan
             style="font-size:14px;font-style:normal;font-variant:normal;font-weight:normal;font-stretch:normal;writing-mode:lr-tb;fill:#000000;fill-opacity:1;fill-rule:nonzero;stroke:none;font-family:Arial;-inkscape-font-specification:Arial"
             x="140.55"
             y="18.93672"
             id="tspan178">t</tspan></text>
<text
           transform="scale(1,-1)"
           id="text180"
           style="font-style:normal;font-variant:normal;font-weight:normal;font-stretch:normal;font-family:Arial;-inkscape-font-specification:Arial"
           x="188.05803"
           y="-5.88555"><tspan
             style="font-size:17.5px;font-style:normal;font-variant:normal;font-weight:normal;font-stretch:normal;writing-mode:lr-tb;fill:#000000;fill-opacity:1;fill-rule:nonzero;stroke:none;font-family:Arial;-inkscape-font-specification:Arial"
             sodipodi:role="line"
             id="tspan182"
             x="188.05803"
             y="-5.88555">t</tspan></text>
</g><path
         d="m 765.512,643.703 127.5,204.488 128.008,213.519 127.5,195 128,220 127.5,113.47 128.01,-95 127.5,-115.97 128.01,-94.5 127.5,-27.5 127.97,120.47 127.5,302.03 128.01,220.98 127.5,56.99 128,-56.99 127.5,-175 128.01,-241.99 127.5,-266.02 128.01,-383.977 127.5,-194.488"
         style="fill:none;stroke:#000000;stroke-width:12.47999954;stroke-linecap:butt;stroke-linejoin:miter;stroke-miterlimit:3.79999995;stroke-opacity:1;stroke-dasharray:none"
         id="path184"
         inkscape:connector-curvature="0" /><path
         d="m 2043.01,1400.18 127.5,271.53 128.01,283.98 127.5,109.49 128,-97.5 127.5,-191.48 128.01,-271.49 127.5,-344.53 128.01,-345.465 127.5,-221.524"
         style="fill:none;stroke:#000000;stroke-width:12.47999954;stroke-linecap:butt;stroke-linejoin:miter;stroke-miterlimit:3.79999995;stroke-opacity:1;stroke-dasharray:37.44, 37.44;stroke-dashoffset:0"
         id="path186"
         inkscape:connector-curvature="0" /><path
         d="m 765.512,458.703 2427.03,0 0,1749.49 -2427.03,0 0,-1749.49 z"
         style="fill:none;stroke:#000000;stroke-width:5;stroke-linecap:butt;stroke-linejoin:miter;stroke-miterlimit:3.79999995;stroke-opacity:1;stroke-dasharray:none"
         id="path188"
         inkscape:connector-curvature="0" /><rect
         style="fill:#ffffff;fill-opacity:1;stroke:#0000ff;stroke-width:12.47999954;stroke-miterlimit:3.79999995;stroke-opacity:0;stroke-dasharray:none;stroke-dashoffset:0"
         id="rect3059"
         width="276.44067"
         height="148.09322"
         x="148.09322"
         y="-2282"
         transform="scale(1,-1)" /></g></g></svg>